inDegrees=no
num_controls=7
num_derivatives=13
num_iterations=98
num_multipliers=7
num_parameters=0
num_slacks=7
num_states=26
objective=0.476986
objective_accelerations=0.045051
objective_balance=0.003704
objective_effort=0.041219
objective_height=0.381345
objective_ligament=0.005666
solver_duration=1378.514433
status=Solve_Succeeded
success=true
DataType=double
version=3
OpenSimVersion=4.5
endheader
time	/jointset/ground_pelvis/pelvis_tilt/value	/jointset/ground_pelvis/pelvis_tx/value	/jointset/ground_pelvis/pelvis_ty/value	/jointset/hip_l/hip_flexion_l/value	/jointset/hip_l/hip_adduction_l/value	/jointset/hip_l/hip_rotation_l/value	/jointset/back/lumbar_extension/value	/jointset/patellofemoral_l/patellar_flexion_l/value	/jointset/knee_l/knee_flexion_l/value	/jointset/knee_l/knee_adduction_l/value	/jointset/knee_l/knee_rotation_l/value	/jointset/ankle_l/ankle_angle_l/value	/jointset/subtalar_l/subtalar_angle_l/value	/jointset/ground_pelvis/pelvis_tilt/speed	/jointset/ground_pelvis/pelvis_tx/speed	/jointset/ground_pelvis/pelvis_ty/speed	/jointset/hip_l/hip_flexion_l/speed	/jointset/hip_l/hip_adduction_l/speed	/jointset/hip_l/hip_rotation_l/speed	/jointset/back/lumbar_extension/speed	/jointset/patellofemoral_l/patellar_flexion_l/speed	/jointset/knee_l/knee_flexion_l/speed	/jointset/knee_l/knee_adduction_l/speed	/jointset/knee_l/knee_rotation_l/speed	/jointset/ankle_l/ankle_angle_l/speed	/jointset/subtalar_l/subtalar_angle_l/speed	/forceset/tau_hip_flexion_l	/forceset/tau_hip_adduction_l	/forceset/tau_hip_rotation_l	/forceset/tau_knee_flexion_l	/forceset/tau_ankle_angle_l	/forceset/tau_subtalar_angle_l	/forceset/tau_lumbar_extension	lambda_cid13_p0	lambda_cid13_p1	lambda_cid13_p2	lambda_cid13_p3	lambda_cid13_p4	lambda_cid13_p5	lambda_cid14_p0	/jointset/ground_pelvis/pelvis_tilt/accel	/jointset/ground_pelvis/pelvis_tx/accel	/jointset/ground_pelvis/pelvis_ty/accel	/jointset/hip_l/hip_flexion_l/accel	/jointset/hip_l/hip_adduction_l/accel	/jointset/hip_l/hip_rotation_l/accel	/jointset/back/lumbar_extension/accel	/jointset/patellofemoral_l/patellar_flexion_l/accel	/jointset/knee_l/knee_flexion_l/accel	/jointset/knee_l/knee_adduction_l/accel	/jointset/knee_l/knee_rotation_l/accel	/jointset/ankle_l/ankle_angle_l/accel	/jointset/subtalar_l/subtalar_angle_l/accel	gamma_cid13_p0	gamma_cid13_p1	gamma_cid13_p2	gamma_cid13_p3	gamma_cid13_p4	gamma_cid13_p5	gamma_cid14_p0
0.5	-0.1004856611226523	-0.04529109661037896	0.8042567092950346	0.9449980102293014	-0.3298773529924178	-0.07696988059276391	-0.7956376288497881	0.9247264178682618	0.9247264178682044	-0.1038271780714511	-0.1745007371446562	0.1442429348662182	0.01132517459628803	-0.14172123902151	-0.1600182134791225	-0.4230776523993499	1.627168216421859	-0.02771650369501974	0.5659090019793163	-0.8330497092899138	1.789281848824327	1.789281848824328	0.1524493876550483	0.0001028911392480454	0.425994599482733	0.1141370235682711	-0.2772296846384745	0.03220160821493587	-0.004791474467875217	-0.2472571271927595	0.09448647198949041	0.03552041259819715	0.3322658744949109	-14.17900840094493	-14.07600467351689	3.082958794867559	-10.34983440057145	-702.6880782526167	-64.79712208175664	-9.61611040313884	0.3013302901864262	0.7034100631495065	-0.1869375701907899	-1.561238691392616	0.3370041122906165	-0.5246905704175903	1.968950931814945	-1.428092951730019	-1.428092951730019	-0.2054354924872973	-0.004662018859600102	-0.2372315626040243	0.3543258158910672	-2.635226199694126e-07	-1.810051580937365e-07	1.554754856903754e-06	1.480719627427363e-07	-2.940204831428019e-07	-7.852438237610699e-08	-2.248289291839611e-07
0.51	-0.1018875926505852	-0.04685606623378268	0.8000175525516463	0.9611890926636244	-0.3301385360892473	-0.07133611800892498	-0.8038687312929528	0.9425449650236916	0.9425449650236487	-0.1023156220474024	-0.1744998270796097	0.1484899724034647	0.01248293713402622	-0.1386432553679997	-0.152972891247493	-0.4246546716492815	1.610815398372953	-0.02452990878032055	0.5607769865943577	-0.8130754007210613	1.774166513601991	1.774166513601988	0.1498542893095716	7.818170935808341e-05	0.4233439411284414	0.1173865413315019	-0.2836876474198357	0.0325493049073011	-0.004939216038887904	-0.2508906643147453	0.09354257852937251	0.03558023312483028	0.3387329109804728	-14.75781197785643	-13.92287412857206	2.969717098398077	-10.15968555656484	-707.46085710486	-64.58685988083184	-8.889161483393917	0.3142800419772174	0.7055465076429972	-0.1282870316998731	-1.707266221767199	0.3078075550784333	-0.5176403926705706	2.025977612771636	-1.59237040871363	-1.592370408714217	-0.2876711782633756	-0.001210765984012771	-0.2893254943962195	0.3057639717316742	-2.534919056338496e-07	-1.633826357543708e-07	1.521215915657808e-06	1.452132589918125e-07	-2.792670688706979e-07	-4.663653057603129e-08	-2.192767021570795e-07
0.52	-0.1032580948141787	-0.04835049199397552	0.7957655850298975	0.9772096543454284	-0.3303681891621294	-0.06575571225296163	-0.8118972292917592	0.9602045355066512	0.9602045355066267	-0.1008302418413401	-0.1744991311810482	0.1527084348526568	0.01367229469243507	-0.1354353661527211	-0.1459094408369489	-0.425639808071421	1.593064065918945	-0.02141049890486108	0.5552376364039746	-0.7925288204181519	1.757486514330528	1.75748651433052	0.1472142240566716	6.005784225652117e-05	0.4202795818719701	0.120456027702436	-0.2901456102012019	0.03289700159965581	-0.005086957609885884	-0.2545242014367328	0.0925986850692519	0.03564005365145061	0.3451999474660322	-15.33854159999993	-13.7696869371598	2.856788262691282	-10.01668182717141	-712.2949541621977	-64.42947492090163	-8.16449531572688	0.3273114025401223	0.707035698932387	-0.06856100463237889	-1.840941572412885	0.3235671044426839	-0.6061575315024572	2.083405278626351	-1.741025761555388	-1.741025761555418	-0.2144288739719572	-0.003344906301922218	-0.3199717430399883	0.3183195374316897	-2.497121202806432e-07	-2.177664886270785e-07	1.470115393121805e-06	1.33405949185722e-07	-2.7148628890002e-07	-3.516151501610146e-08	-2.20869729751913e-07
0.53	-0.1045958948356312	-0.0497742746416344	0.7915067398671723	0.9930458494319511	-0.3305670500358299	-0.06023281895645521	-0.8197176542297897	0.9776896205119868	0.9776896205119882	-0.09937146657993436	-0.1744987796662444	0.156894203585029	0.0148913592244908	-0.1321061295006208	-0.1388518664991742	-0.4260292135730493	1.573955287913521	-0.0183753951981932	0.5492867716421505	-0.7714839336147195	1.739281271986607	1.739281271986596	0.1445254909121716	1.417942455018181e-05	0.4168077347354304	0.1233228983569305	-0.2962603995597827	0.03312120067993835	-0.005187415285200685	-0.2582594320635358	0.09161718513587731	0.03556219500414906	0.3513011861791112	-15.93111342425695	-13.54767543668909	2.724939359256788	-9.741563864423048	-716.9641659045316	-64.19206712365289	-7.450580090364673	0.3384833293186351	0.7044270712920415	-0.009182167749310396	-1.978825475161803	0.2912384079725124	-0.5978929825114209	2.125865417235432	-1.89761134198001	-1.897611341980588	-0.2984182325589906	-0.004332285037134266	-0.3707585465297205	0.2656439873056062	-2.397066246755791e-07	-2.161026781735224e-07	1.425504314434964e-06	1.277531044762148e-07	-2.576371554485242e-07	-8.937120808406893e-09	-2.158870363678088e-07
0.54	-0.1058998517840125	-0.05112761979189721	0.7872469902804665	1.008684360826304	-0.3307360085916278	-0.05477110271436354	-0.8273254632925796	0.99498518551965	0.994985185519678	-0.0979400431895516	-0.1744987115307183	0.1610432603765216	0.01613804709466074	-0.1286667515375629	-0.1318219413577349	-0.4258206928675194	1.55352732748591	-0.01543003532377356	0.5430022255207652	-0.7500056453699299	1.719582514795902	1.719582514795887	0.1417438498528718	3.381985558731251e-06	0.41293719369614	0.1259806953253164	-0.3023751889183663	0.03334539976021237	-0.005287872960565937	-0.261994662690338	0.09063568520250098	0.03548433635683795	0.3574024248921888	-16.52519579285106	-13.32881377516406	2.597493809789439	-9.518710033328601	-721.6834481375589	-64.0113620667821	-6.770079653026775	0.3493396647316776	0.701505859665296	0.05102423679924057	-2.104778056850516	0.3056183379930402	-0.6728938034146678	2.170085566897797	-2.039728730912299	-2.039728730912285	-0.2330104569318885	0.003671289441056224	-0.3997105235901408	0.2765048002099817	-2.228131092173957e-07	-1.524286870185674e-07	1.388073045964219e-06	1.289094551927149e-07	-2.370740989969744e-07	3.360573488192118e-08	-2.036290772197735e-07
0.55	-0.107168915547911	-0.05241086933506332	0.7829923022428983	1.024112235132749	-0.3308758914509021	-0.04937388065856249	-0.8347164777459968	1.012076537799228	1.012076537799258	-0.09653670295449253	-0.1744985428355777	0.1651517304883835	0.01741037047228337	-0.1251293561723884	-0.1248387199428017	-0.4250175125465405	1.531841029012533	-0.01256364504915432	0.5363791267463425	-0.7281438195885418	1.698455842210964	1.698455842210947	0.1389178069898514	2.484088284382815e-05	0.4086967889898683	0.128447225378267	-0.3081663217248689	0.03341782942885404	-0.005345512021654636	-0.2657714795131206	0.08956908858836062	0.03531131830925108	0.3631497055522803	-17.14163955667577	-13.06229169031421	2.459687454960215	-9.17665901838981	-726.1927760673093	-63.78524997367833	-6.125461443311871	0.3584161682414173	0.6951432902860465	0.1098300730886513	-2.231558097717456	0.2743955879791976	-0.6666553049485532	2.202244942541699	-2.183911969958069	-2.183911969958322	-0.3083681047546016	0.0008289979538176323	-0.445208200444553	0.226072164136074	-2.047837683602264e-07	-8.931047607000803e-08	1.342871315851e-06	1.293117023686213e-07	-2.161915343034839e-07	7.399534471763661e-08	-1.90264160081643e-07
0.5600000000000001	-0.1084021100189959	-0.05362460406250444	0.778748619037208	1.039317045983428	-0.3309876611642762	-0.0440448170686035	-0.8418872711698437	1.028949668263421	1.028949668263454	-0.09516181652882048	-0.1744982703898429	0.1692159960019225	0.018706228161695	-0.1214928929739593	-0.1179189782127349	-0.4236197264918971	1.508914636333712	-0.009807406143216931	0.52937053235222	-0.7059614394558513	1.675938151719084	1.675938151719065	0.1360530879761303	2.413210339300568e-05	0.4040962740316413	0.1306875576831569	-0.3139574545313732	0.03349025909748685	-0.005403151082783765	-0.2695482963359034	0.08850249197421772	0.03513830026165358	0.3688969862123719	-17.76050526412206	-12.7987139443149	2.32619923889506	-8.882701222465965	-730.7620865777776	-63.61277986963717	-5.517257082872923	0.369153231382625	0.6888099226919965	0.1699453835321255	-2.352796897939255	0.2835880642566749	-0.7499929273546181	2.23419643715828	-2.317932312300663	-2.317932312300717	-0.2407456870720181	-0.0007622459061254788	-0.4717325739812376	0.2312652505978469	-1.85391437024274e-07	-2.685920136912348e-08	1.288345031766814e-06	1.288090252958152e-07	-1.949255597196645e-07	1.118010595278169e-07	-1.755708933553982e-07
0.5700000000000001	-0.109598511341456	-0.05476951155599219	0.7745218738511985	1.054286608598406	-0.3310722960377642	-0.03878782009094157	-0.8488347707789486	1.045590859518048	1.0455908595181	-0.0938154478135028	-0.1744980270506787	0.1732325713766764	0.02002352586557469	-0.1177742528454903	-0.1110780601057587	-0.4216304634806785	1.484802641549451	-0.007137011610833285	0.5219533069514564	-0.6835017624466241	1.652080438887222	1.652080438887204	0.1332300561506242	1.41406990729385e-05	0.3991650277772701	0.1327359896154118	-0.3193873898519479	0.03346346663771061	-0.005416804086645408	-0.2734005801792175	0.08744937421798051	0.03483699719536682	0.3742683147355824	-18.37027315915726	-12.47630636002337	2.177952377150102	-8.501414713882369	-735.1107319399794	-63.36796998559634	-4.945633194329367	0.3751704617146134	0.6794275164521225	0.2282072650415146	-2.469710051325372	0.2559655830547345	-0.7490693409241904	2.257361320619948	-2.452606364535747	-2.452606364535586	-0.3016662322966892	-0.002423977418901976	-0.5118774575419751	0.1860839350088627	-1.659693106972236e-07	3.181656861747175e-08	1.228533025022652e-06	1.273054347227522e-07	-1.739953530824695e-07	1.449277575179043e-07	-1.605597932400541e-07
